<?xml version="1.0" standalone="no"?><!DOCTYPE svg PUBLIC "-//W3C//DTD SVG 1.1//EN" "http://www.w3.org/Graphics/SVG/1.1/DTD/svg11.dtd"><svg t="1740917653869" class="icon" viewBox="0 0 1024 1024" version="1.1" xmlns="http://www.w3.org/2000/svg" p-id="2874" xmlns:xlink="http://www.w3.org/1999/xlink" width="200" height="200"><path d="M460.8 729c-71.7 0-139.1-27.9-189.9-78.6-50.7-50.7-78.6-118.1-78.6-189.9 0-71.7 27.9-139.1 78.6-189.9C321.5 219.9 389 192 460.8 192c71.7 0 139.1 27.9 189.9 78.6 50.7 50.7 78.6 118.1 78.6 189.9 0 71.7-27.9 139.1-78.6 189.9-50.8 50.8-118.2 78.6-189.9 78.6z m0-482.7c-57.2 0-111 22.3-151.5 62.8s-62.8 94.3-62.8 151.5 22.3 111 62.8 151.5 94.3 62.8 151.5 62.8 111-22.3 151.5-62.8 62.8-94.3 62.8-151.5-22.3-111-62.8-151.5c-40.5-40.4-94.3-62.8-151.5-62.8z m0 0" fill="#ffffff" p-id="2875"></path><path d="M803.6 831.2c-6.9 0-13.9-2.6-19.1-8L612.2 651c-10.6-10.6-10.6-27.8 0-38.4 10.6-10.6 27.8-10.6 38.4 0l172.2 172.2c10.6 10.6 10.6 27.8 0 38.4-5.3 5.3-12.3 8-19.2 8z m0 0" fill="#ffffff" p-id="2876"></path></svg>