<?xml version="1.0" standalone="no"?><!DOCTYPE svg PUBLIC "-//W3C//DTD SVG 1.1//EN" "http://www.w3.org/Graphics/SVG/1.1/DTD/svg11.dtd"><svg t="1741764493804" class="icon" viewBox="0 0 1024 1024" version="1.1" xmlns="http://www.w3.org/2000/svg" p-id="12768" xmlns:xlink="http://www.w3.org/1999/xlink" width="200" height="200"><path d="M768 746.66666665c-51.2 0-89.6 25.6-108.8 64L377.6 676.26666665C384 669.86666665 384 663.46666665 384 650.66666665 384 637.86666665 377.6 618.66666665 377.6 605.86666665l288-166.4C691.2 471.46666665 723.2 490.66666665 768 490.66666665c70.4 0 128-57.6 128-128 0-70.4-57.6-128-128-128-70.4 0-128 57.6-128 128 0 19.2 6.4 32 6.4 51.2L358.4 580.26666665C339.2 541.86666665 300.8 522.66666665 256 522.66666665c-70.4 0-128 57.6-128 128 0 70.4 57.6 128 128 128 51.2 0 89.6-25.6 115.2-70.4l275.2 134.4c0 12.8-6.4 19.2-6.4 32 0 70.4 57.6 128 128 128 70.4 0 128-57.6 128-128C896 804.26666665 838.4 746.66666665 768 746.66666665zM768 266.66666665c51.2 0 96 44.8 96 96S819.2 458.66666665 768 458.66666665 672 413.86666665 672 362.66666665 716.8 266.66666665 768 266.66666665zM256 746.66666665c-51.2 0-96-44.8-96-96S204.8 554.66666665 256 554.66666665s96 44.8 96 96S307.2 746.66666665 256 746.66666665zM768 970.66666665c-51.2 0-96-44.8-96-96s44.8-96 96-96 96 44.8 96 96S819.2 970.66666665 768 970.66666665z" p-id="12769" fill="#515151"></path></svg>