<?xml version="1.0" standalone="no"?><!DOCTYPE svg PUBLIC "-//W3C//DTD SVG 1.1//EN" "http://www.w3.org/Graphics/SVG/1.1/DTD/svg11.dtd"><svg t="1741771530778" class="icon" viewBox="0 0 1024 1024" version="1.1" xmlns="http://www.w3.org/2000/svg" p-id="70397" xmlns:xlink="http://www.w3.org/1999/xlink" width="200" height="200"><path d="M992 960H32c-17.7 0-32 14.3-32 32s14.3 32 32 32h960c17.7 0 32-14.3 32-32s-14.3-32-32-32zM115.7 891.7c4.4 0 8.8-0.6 13.2-1.8L333 831.5l508.6-500.2c1.1-0.8 2.1-1.7 3-2.7 0.8-0.8 1.6-1.7 2.4-2.6l122.8-120.8L764.5 0l-628 617.6c-1.1 0.9-2.2 1.8-3.2 2.8-0.9 0.9-1.7 1.8-2.5 2.8l-3 2.9-1 3.7c-1.3 2.9-2.2 5.9-2.6 9L69.5 830.5c-4.8 16.8-0.1 34.8 12.2 47.1 9.1 9.2 21.4 14.1 34 14.1z m56.4-187.3l82.9 82.9-116 33.2 33.1-116.1z m489.6-513.5l114.7 114.7-460 452.5-114.8-114.7 460.1-452.5z m217.2 13.9l-56.9 56L707.3 146l56.9-56 114.7 114.8z" fill="#515151" p-id="70398"></path></svg>