<?xml version="1.0" standalone="no"?><!DOCTYPE svg PUBLIC "-//W3C//DTD SVG 1.1//EN" "http://www.w3.org/Graphics/SVG/1.1/DTD/svg11.dtd"><svg t="1741771068973" class="icon" viewBox="0 0 1024 1024" version="1.1" xmlns="http://www.w3.org/2000/svg" p-id="31573" xmlns:xlink="http://www.w3.org/1999/xlink" width="200" height="200"><path d="M510 912H374a32 32 0 0 1-32-32V624a32 32 0 0 1 32-32h136a32 32 0 0 1 32 32v256a32 32 0 0 1-32 32z m-96-72h56V664h-56z" p-id="31574" fill="#515151"></path><path d="M478.15 615.88h-72v-143a32 32 0 0 1 32-32h402.49v-176h-71.15v-72h111.15a32 32 0 0 1 32 32v256a32 32 0 0 1-32 32H478.15z" p-id="31575" fill="#515151"></path><path d="M753 345H145a32 32 0 0 1-32-32V145a32 32 0 0 1 32-32h608a32 32 0 0 1 32 32v168a32 32 0 0 1-32 32z m-568-72h528v-88H185z" p-id="31576" fill="#515151"></path></svg>