<?xml version="1.0" standalone="no"?><!DOCTYPE svg PUBLIC "-//W3C//DTD SVG 1.1//EN" "http://www.w3.org/Graphics/SVG/1.1/DTD/svg11.dtd"><svg t="1741770895813" class="icon" viewBox="0 0 1024 1024" version="1.1" xmlns="http://www.w3.org/2000/svg" p-id="14881" xmlns:xlink="http://www.w3.org/1999/xlink" width="200" height="200"><path d="M326.144 722.4832a30.72 30.72 0 1 1 44.032 42.8032l-122.88 126.5152a30.72 30.72 0 0 1-44.032 0l-122.88-126.464a30.72 30.72 0 0 1 44.032-42.8544l100.864 103.7824 100.864-103.7824zM203.264 132.1984a30.72 30.72 0 0 1 44.032 0l122.88 126.464a30.72 30.72 0 0 1-44.032 42.8544L225.28 197.632 124.416 301.5168a30.72 30.72 0 0 1-39.1168 4.096l-4.3008-3.4816a30.72 30.72 0 0 1-0.6144-43.4176l122.88-126.5152z" p-id="14882" fill="#515151"></path><path d="M225.28 122.88A30.72 30.72 0 0 1 256 153.6v716.8a30.72 30.72 0 0 1-61.44 0V153.6a30.72 30.72 0 0 1 30.72-30.72zM921.6 165.0688a30.72 30.72 0 0 1 0 61.44H471.04a30.72 30.72 0 1 1 0-61.44H921.6zM757.76 375.8592a30.72 30.72 0 0 1 0 61.44H471.04a30.72 30.72 0 1 1 0-61.44h286.72zM921.6 586.7008a30.72 30.72 0 0 1 0 61.44H471.04a30.72 30.72 0 1 1 0-61.44H921.6zM757.76 807.7312a20.48 20.48 0 1 1 0 40.96H471.04a20.48 20.48 0 1 1 0-40.96h286.72z" p-id="14883" fill="#515151"></path></svg>