<?xml version="1.0" standalone="no"?><!DOCTYPE svg PUBLIC "-//W3C//DTD SVG 1.1//EN" "http://www.w3.org/Graphics/SVG/1.1/DTD/svg11.dtd"><svg t="1741771596470" class="icon" viewBox="0 0 1098 1024" version="1.1" xmlns="http://www.w3.org/2000/svg" p-id="71460" xmlns:xlink="http://www.w3.org/1999/xlink" width="214.453125" height="200"><path d="M965.5 744.785714l-746 0 0-139.714286L0 791.214286 219.5 1024 219.5 884.285714c0 0 614.357143 0 746.071429 0 131.571429 0 131.571429-139.5 131.571429-139.5l0-325.857143-131.571429 139.5 0 186.357143L965.5 744.785714zM131.642857 279.214286l746 0 0 139.714286L1097.142857 232.671429 877.642857 0l0 139.6c0 0-614.357143 0-746 0C0 139.6 0 279.214286 0 279.214286l0 325.857143 131.642857-139.5L131.642857 279.214286z" fill="#515151" p-id="71461"></path></svg>